HIERARCHY
ROOT joint_Root
{
	OFFSET 0.0 0.0 0.0
	CHANNELS 6 Xposition Yposition Zposition Zrotation Xrotation Yrotation 
	JOINT Hips
	{
		OFFSET 4.5925 91.4895 -427.239
		CHANNELS 6 Xposition Yposition Zposition Zrotation Xrotation Yrotation 
		JOINT Spine
		{
			OFFSET 15.7357 0.0 0.0
			CHANNELS 6 Xposition Yposition Zposition Zrotation Xrotation Yrotation 
			JOINT Chest
			{
				OFFSET 8.98455 -0.406207 0.0
				CHANNELS 6 Xposition Yposition Zposition Zrotation Xrotation Yrotation 
				JOINT Neck
				{
					OFFSET 16.3773 0.0 0.0
					CHANNELS 6 Xposition Yposition Zposition Zrotation Xrotation Yrotation 
					JOINT Head
					{
						OFFSET 6.45672 0.0 0.0
						CHANNELS 6 Xposition Yposition Zposition Zrotation Xrotation Yrotation 
						End Site
						{
							OFFSET 0.0 0.0 0.0
						}
					}
				}
				JOINT Shoulder_L
				{
					OFFSET 12.9942 -0.242716 4.98039
					CHANNELS 6 Xposition Yposition Zposition Zrotation Xrotation Yrotation 
					JOINT UpperArm_L
					{
						OFFSET 5.34809 0.0 0.0
						CHANNELS 6 Xposition Yposition Zposition Zrotation Xrotation Yrotation 
						JOINT LowerArm_L
						{
							OFFSET 24.3286 1.87007e-05 0.0
							CHANNELS 6 Xposition Yposition Zposition Zrotation Xrotation Yrotation 
							JOINT Hand_L
							{
								OFFSET 22.2916 0.0 0.0
								CHANNELS 6 Xposition Yposition Zposition Zrotation Xrotation Yrotation 
								End Site
								{
									OFFSET 0.0 0.0 0.0
								}
							}
						}
					}
				}
				JOINT Shoulder_R
				{
					OFFSET 12.9945 -0.242716 -4.98039
					CHANNELS 6 Xposition Yposition Zposition Zrotation Xrotation Yrotation 
					JOINT UpperArm_R
					{
						OFFSET -5.34813 0.0 0.0
						CHANNELS 6 Xposition Yposition Zposition Zrotation Xrotation Yrotation 
						JOINT LowerArm_R
						{
							OFFSET -24.3289 0.000322201 0.0
							CHANNELS 6 Xposition Yposition Zposition Zrotation Xrotation Yrotation 
							JOINT Hand_R
							{
								OFFSET -22.2915 -0.000108084 0.0
								CHANNELS 6 Xposition Yposition Zposition Zrotation Xrotation Yrotation 
								End Site
								{
									OFFSET 0.0 0.0 0.0
								}
							}
						}
					}
				}
			}
		}
		JOINT UpperLeg_L
		{
			OFFSET -2.19248 -6.46944 0.0
			CHANNELS 6 Xposition Yposition Zposition Zrotation Xrotation Yrotation 
			JOINT LowerLeg_L
			{
				OFFSET 39.0811 0.0 -1.23785e-05
				CHANNELS 6 Xposition Yposition Zposition Zrotation Xrotation Yrotation 
				JOINT Foot_L
				{
					OFFSET 40.9854 0.0 -1.26872e-05
					CHANNELS 6 Xposition Yposition Zposition Zrotation Xrotation Yrotation 
					JOINT Toes_L
					{
						OFFSET 11.7543 0.0 0.0
						CHANNELS 6 Xposition Yposition Zposition Zrotation Xrotation Yrotation 
						End Site
						{
							OFFSET 0.0 0.0 0.0
						}
					}
				}
			}
		}
		JOINT UpperLeg_R
		{
			OFFSET -2.19251 6.46944 0.0
			CHANNELS 6 Xposition Yposition Zposition Zrotation Xrotation Yrotation 
			JOINT LowerLeg_R
			{
				OFFSET -39.0811 -0.00228153 -0.0401928
				CHANNELS 6 Xposition Yposition Zposition Zrotation Xrotation Yrotation 
				JOINT Foot_R
				{
					OFFSET -40.9854 0.0 0.0
					CHANNELS 6 Xposition Yposition Zposition Zrotation Xrotation Yrotation 
					JOINT Toes_R
					{
						OFFSET -11.7543 0.0 0.0
						CHANNELS 6 Xposition Yposition Zposition Zrotation Xrotation Yrotation 
						End Site
						{
							OFFSET 0.0 0.0 0.0
						}
					}
				}
			}
		}
	}
}
MOTION
Frames:	8
Frame Time:	0.0333333
0.000000 0.000000 0.000000 0.000000 0.000000 -0.000000 103.452000 89.891100 174.805000 -22.224800 82.147800 119.212000 15.735700 0.000005 -0.000001 100.849000 83.992000 -99.975600 8.984550 -0.406207 -0.000000 4.021360 2.229870 1.667360 16.377300 -0.000001 -0.000001 0.075824 12.721800 0.467376 6.456720 -0.000001 -0.000000 -4.088020 20.119000 -7.958430 12.994200 -0.242716 4.980390 -90.444600 1.351320 -71.787700 5.348090 -0.000007 -0.000001 -62.972500 14.400400 7.698250 24.328600 0.000019 0.000005 3.369440 27.514900 -7.263620 22.291600 -0.000001 0.000005 15.840600 5.037560 6.503720 12.994500 -0.242716 -4.980390 88.953400 6.901000 -81.355200 -5.348130 -0.000001 -0.000004 -45.909200 27.705200 -49.825200 -24.328900 0.000322 -0.000009 0.281301 0.250947 -48.323200 -22.291500 -0.000108 -0.000004 21.383200 5.461010 -5.034420 -2.192480 -6.469440 -0.000000 175.358000 -40.271400 -23.782000 39.081100 -0.000007 -0.000012 -0.061219 0.128126 25.538700 40.985400 -0.000006 -0.000013 13.195000 -15.923800 -54.497000 11.754300 -0.000000 0.000003 -0.001390 -0.020807 -17.422900 -2.192510 6.469440 -0.000001 171.736000 10.737400 -179.991000 -39.081100 -0.002282 -0.040193 0.068755 -0.080981 38.955700 -40.985400 0.000008 0.000006 6.127130 26.963200 -60.747100 -11.754300 -0.000006 -0.000006 -0.137817 -0.530093 -38.919600
0.000000 0.000000 0.000000 0.000000 0.000000 -0.000000 106.736000 88.899800 172.050000 -26.409500 81.558900 124.407000 15.735700 0.000005 -0.000001 98.317700 83.995200 -97.428800 8.984550 -0.406207 -0.000000 4.106030 1.706320 1.714710 16.377300 -0.000001 -0.000001 0.342697 12.641800 0.645915 6.456720 -0.000001 -0.000000 -3.930860 20.472100 -7.854360 12.994200 -0.242716 4.980390 -90.562100 1.716380 -71.862700 5.348090 -0.000007 -0.000001 -61.721500 14.599400 7.843010 24.328600 0.000019 0.000005 1.780620 29.222500 -3.643090 22.291600 -0.000001 0.000005 16.808600 4.960760 8.139700 12.994500 -0.242716 -4.980390 88.853200 7.059080 -80.749100 -5.348130 -0.000001 -0.000004 -45.411900 25.933100 -50.291000 -24.328900 0.000322 -0.000009 0.441649 0.315872 -54.457700 -22.291500 -0.000108 -0.000004 22.683700 5.470060 -5.372870 -2.192480 -6.469440 -0.000000 177.143000 -35.496100 -23.273200 39.081100 -0.000007 -0.000012 -0.189139 0.277235 34.303500 40.985400 -0.000006 -0.000013 10.240300 -20.361100 -61.226000 11.754300 -0.000000 0.000003 -0.000465 -0.007485 -16.881500 -2.192510 6.469440 -0.000001 169.708000 10.221100 -179.718000 -39.081100 -0.002282 -0.040193 0.105827 -0.107599 43.626100 -40.985400 0.000008 0.000006 5.530950 27.665900 -57.499500 -11.754300 -0.000006 -0.000006 -0.214535 -0.668717 -45.346500
0.000000 0.000000 0.000000 0.000000 0.000000 -0.000000 109.692000 88.230900 169.130000 -38.442300 80.452500 137.171000 15.735700 0.000005 -0.000001 95.092400 84.025400 -94.373800 8.984550 -0.406207 -0.000000 4.130460 1.036230 1.398200 16.377300 -0.000001 -0.000001 0.420542 12.498100 0.563508 6.456720 -0.000001 -0.000000 -3.906820 20.313900 -7.381700 12.994200 -0.242716 4.980390 -90.842900 2.538660 -71.626300 5.348090 -0.000007 -0.000001 -60.148900 15.818400 5.007790 24.328600 0.000019 0.000005 -0.000624 30.024000 -0.000003 22.291600 -0.000001 0.000005 16.298400 4.885240 9.676490 12.994500 -0.242716 -4.980390 88.720500 7.497240 -80.286500 -5.348130 -0.000001 -0.000004 -47.012700 23.755200 -47.581200 -24.328900 0.000322 -0.000009 1.310820 0.747678 -60.286000 -22.291500 -0.000108 -0.000004 23.454700 5.471400 -5.422940 -2.192480 -6.469440 -0.000000 176.990000 -32.239500 -21.397200 39.081100 -0.000007 -0.000012 -0.356854 0.452528 38.259300 40.985400 -0.000006 -0.000013 8.803150 -21.715500 -66.055000 11.754300 -0.000000 0.000003 -0.000008 -0.000114 -16.582000 -2.192510 6.469440 -0.000001 168.149000 9.227330 178.227000 -39.081100 -0.002282 -0.040193 0.162736 -0.132570 50.266300 -40.985400 0.000008 0.000006 3.874700 26.901500 -49.697800 -11.754300 -0.000006 -0.000006 -0.251334 -0.724261 -48.048200
0.000000 0.000000 0.000000 0.000000 0.000000 -0.000000 112.398000 87.836100 166.212000 -48.270100 78.938600 148.087000 15.735700 0.000005 -0.000001 96.376000 83.853100 -95.921200 8.984550 -0.406207 -0.000000 4.447600 1.349780 0.856255 16.377300 -0.000001 -0.000001 0.558196 11.903800 0.335975 6.456720 -0.000001 -0.000000 -3.935250 19.659400 -6.889560 12.994200 -0.242716 4.980390 -90.858700 2.570550 -71.520800 5.348090 -0.000007 -0.000001 -59.288900 15.127900 0.284299 24.328600 0.000019 0.000005 0.000816 33.452900 -0.000004 22.291600 -0.000001 0.000005 13.862300 4.806190 11.209700 12.994500 -0.242716 -4.980390 88.691000 7.486530 -80.052700 -5.348130 -0.000001 -0.000004 -51.355500 21.124800 -41.351200 -24.328900 0.000322 -0.000009 2.169700 0.971445 -65.910700 -22.291500 -0.000108 -0.000004 24.062500 5.476740 -5.621430 -2.192480 -6.469440 -0.000000 176.851000 -34.293200 -17.897700 39.081100 -0.000007 -0.000012 -0.428137 0.517000 39.629800 40.985400 -0.000006 -0.000013 9.238080 -18.432600 -70.371000 11.754300 -0.000000 0.000003 -0.000025 -0.000312 -16.589700 -2.192510 6.469440 -0.000001 168.033000 5.721580 175.055000 -39.081100 -0.002282 -0.040193 0.170373 -0.107345 57.292300 -40.985400 0.000008 0.000006 -0.373335 22.364100 -39.230200 -11.754300 -0.000006 -0.000006 -0.158181 -0.570641 -40.759200
0.000000 0.000000 0.000000 0.000000 0.000000 -0.000000 114.645000 87.491700 163.561000 -57.446000 75.732100 158.173000 15.735700 0.000005 -0.000001 94.691800 83.723600 -94.306100 8.984550 -0.406207 -0.000000 4.742050 1.014690 0.728671 16.377300 -0.000001 -0.000001 0.448528 11.466100 -0.018333 6.456720 -0.000001 -0.000000 -3.567590 19.045200 -6.885710 12.994200 -0.242716 4.980390 -91.052200 3.141800 -71.473300 5.348090 -0.000007 -0.000001 -59.068800 13.389300 -3.978800 24.328600 0.000019 0.000005 0.371459 35.378300 -0.642410 22.291600 -0.000001 0.000005 10.894900 4.836110 10.615900 12.994500 -0.242716 -4.980390 88.655100 7.709270 -80.073100 -5.348130 -0.000001 -0.000004 -54.456700 18.977900 -34.207900 -24.328900 0.000322 -0.000009 0.300812 0.111617 -69.950600 -22.291500 -0.000108 -0.000004 25.561700 5.499800 -6.512330 -2.192480 -6.469440 -0.000000 177.083000 -33.444600 -14.289800 39.081100 -0.000007 -0.000012 -0.423568 0.503465 40.075100 40.985400 -0.000006 -0.000013 9.760060 -16.276200 -73.492300 11.754300 -0.000000 0.000003 -0.000038 -0.000445 -16.594900 -2.192510 6.469440 -0.000001 168.705000 3.257220 171.374000 -39.081100 -0.002282 -0.040193 0.161681 -0.078890 63.539800 -40.985400 0.000008 0.000006 -5.602050 15.955900 -28.411800 -11.754300 -0.000006 -0.000006 -0.033423 -0.232744 -26.116900
0.000000 0.000000 0.000000 0.000000 0.000000 -0.000000 116.650000 87.697300 161.036000 -65.228800 70.040500 166.045000 15.735700 0.000005 -0.000001 89.823600 83.776000 -89.350600 8.984550 -0.406207 -0.000000 4.682260 -0.050974 0.947109 16.377300 -0.000001 -0.000001 0.445135 10.376600 -0.424773 6.456720 -0.000001 -0.000000 -3.470120 18.156300 -6.937980 12.994200 -0.242716 4.980390 -91.281100 3.970700 -72.101800 5.348090 -0.000007 -0.000001 -59.749500 15.009600 -8.721070 24.328600 0.000019 0.000005 2.616850 31.378500 -5.023500 22.291600 -0.000001 0.000005 9.625080 5.001660 7.273030 12.994500 -0.242716 -4.980390 88.522300 7.934430 -79.414600 -5.348130 -0.000001 -0.000004 -55.970500 17.683200 -27.069600 -24.328900 0.000322 -0.000009 -2.780140 -0.951185 -71.120900 -22.291500 -0.000108 -0.000004 27.652300 5.532830 -7.907180 -2.192480 -6.469440 -0.000000 176.743000 -28.100200 -10.488700 39.081100 -0.000007 -0.000012 -0.377774 0.484946 37.919500 40.985400 -0.000006 -0.000013 10.203700 -15.606000 -74.531100 11.754300 -0.000000 0.000003 -0.000038 -0.000444 -16.594900 -2.192510 6.469440 -0.000001 170.240000 2.476020 169.049000 -39.081100 -0.002282 -0.040193 0.106148 -0.042251 67.698100 -40.985400 0.000008 0.000006 -5.383960 10.471000 -30.368000 -11.754300 -0.000006 -0.000006 -0.025692 -0.196994 -24.634000
0.000000 0.000000 0.000000 0.000000 0.000000 -0.000000 118.463000 88.302000 158.579000 -69.680400 62.929600 170.060000 15.735700 0.000005 -0.000001 82.736300 83.890600 -82.084200 8.984550 -0.406207 -0.000000 4.365290 -1.561690 1.362460 16.377300 -0.000001 -0.000001 0.432737 9.274600 -0.529604 6.456720 -0.000001 -0.000000 -3.678340 17.372400 -6.751490 12.994200 -0.242716 4.980390 -91.390500 4.505840 -72.829200 5.348090 -0.000007 -0.000001 -60.707300 19.933800 -13.487500 24.328600 0.000019 0.000005 4.597090 25.011500 -10.776500 22.291600 -0.000001 0.000005 9.028060 5.152540 3.875990 12.994500 -0.242716 -4.980390 88.410400 7.910740 -78.600200 -5.348130 -0.000001 -0.000004 -56.881600 17.555900 -20.275600 -24.328900 0.000322 -0.000009 -4.647160 -1.835820 -68.495200 -22.291500 -0.000108 -0.000004 28.527300 5.556390 -9.011750 -2.192480 -6.469440 -0.000000 176.250000 -23.371000 -6.260730 39.081100 -0.000007 -0.000012 -0.078671 0.119584 33.340200 40.985400 -0.000006 -0.000013 14.894300 -13.911400 -73.775800 11.754300 -0.000000 0.000003 -0.555014 -0.683549 -16.148400 -2.192510 6.469440 -0.000001 172.587000 2.676670 167.347000 -39.081100 -0.002282 -0.040193 0.022708 -0.007447 69.181800 -40.985400 0.000008 0.000006 -1.192960 6.794830 -38.862200 -11.754300 -0.000006 -0.000006 -0.022845 -0.182563 -24.037700
0.000000 0.000000 0.000000 0.000000 0.000000 -0.000000 120.061000 89.010700 156.242000 -72.190800 55.031800 172.008000 15.735700 0.000005 -0.000001 75.362000 83.909300 -74.432300 8.984550 -0.406207 -0.000000 4.050710 -3.103950 1.967500 16.377300 -0.000001 -0.000001 0.286522 8.049000 -0.483989 6.456720 -0.000001 -0.000000 -4.122700 16.545000 -6.168070 12.994200 -0.242716 4.980390 -91.383700 4.765100 -73.787600 5.348090 -0.000007 -0.000001 -61.386500 26.345900 -18.335400 24.328600 0.000019 0.000005 6.905090 21.767400 -18.089500 22.291600 -0.000001 0.000005 8.965220 5.215310 2.332980 12.994500 -0.242716 -4.980390 88.320300 7.740710 -77.716800 -5.348130 -0.000001 -0.000004 -57.583500 18.502800 -14.193400 -24.328900 0.000322 -0.000009 -5.312580 -2.832250 -62.021000 -22.291500 -0.000108 -0.000004 27.087000 5.552900 -8.831870 -2.192480 -6.469440 -0.000000 176.653000 -19.609300 -2.760200 39.081100 -0.000007 -0.000012 0.065410 -0.115413 29.542100 40.985400 -0.000006 -0.000013 17.961100 -10.216100 -72.022900 11.754300 -0.000000 0.000003 -0.911735 -1.110340 -17.898500 -2.192510 6.469440 -0.000001 175.289000 3.222220 165.459000 -39.081100 -0.002282 -0.040193 -0.032815 0.014634 67.852900 -40.985400 0.000008 0.000006 2.639790 1.475830 -43.800800 -11.754300 -0.000006 -0.000006 -0.022013 -0.178191 -23.857300
